#define dummy_width 16
#define dummy_height 14
static char dummy_bits[] = {
 0xff,0xff,0x01,0x80,0xfd,0xbf,0xfd,0xbf,0x0d,0x8c,0x0d,0x8c,0xfd,0x8c,0xfd,
 0x8c,0x0d,0x8c,0x0d,0x8c,0x0d,0x8c,0x0d,0x8c,0x01,0x80,0xff,0xff };
